<svg xmlns="http://www.w3.org/2000/svg" viewBox="0 0 1206.17 712.47">
    <defs>
        <style>
            .cls-1 {
                fill: #fff;}
        </style>
    </defs>

    <g id="图层_2" data-name="图层 2">
        <g id="图层_1-2" data-name="图层 1">
            <path class="cls-1" d="M246.58,431.11c-6.62,1.1-188.34,1.55-240.51.7-1.51,0-3-.24-4.68-.37a14.65,14.65,0,0,1-1.26-3.29,43.07,43.07,0,0,1-.1-5.21Q0,216.68,0,10.4V2.86A4.9,4.9,0,0,1,4.69,0C5.85,0,7,0,8.16,0,29.41.05,50.65,0,71.9.11a30.3,30.3,0,0,1,8.52,1.26C97.75,6.69,115.08,12,132.32,17.63c24.57,8,49.08,16.19,73.59,24.36,2.89,1,6.08,1.56,8.12,5,1.63,6-.93,12.93,1.33,19.36a17.71,17.71,0,0,0,8.93-.09c5.26-1.22,10.53-2.36,15.81-3.48,1.86-.4,3.75-.64,5.94-1a30.59,30.59,0,0,1,.51,3.55c.06,3.86,0,7.72,0,11.58V431.11ZM128.82,219.32c2.45-5.81,1.74-11.65,1.77-17.43q.28-51.54.59-103.1c0-2.89,0-5.79-.18-8.68a17.84,17.84,0,0,0-.68-4,9.08,9.08,0,0,0-7-6.91c-5.81-1.42-11.5-3.3-17.27-4.88a33,33,0,0,0-4.52-.67,9,9,0,0,0-4.66,6.39A33.71,33.71,0,0,0,96,86.92q-.53,58.5-.91,117a26.09,26.09,0,0,0,.61,6.31,20.44,20.44,0,0,1-.16,9.71,32.34,32.34,0,0,0-.92,6.84q-.5,62.84-.87,125.69a43.48,43.48,0,0,0,.2,6.36c.49,3.42,1,6.95,4.77,9.38,1.44.14,3.34.47,5.24.5,6,.07,12,0,18,0a16.83,16.83,0,0,0,1.74,0c3.93-.35,5.91-2.24,6.4-6.15a25.48,25.48,0,0,0,.14-2.9c.13-7.72.33-15.44.35-23.16q.15-50.4.22-100.79C130.8,230.31,130.9,224.91,128.82,219.32Zm29.05,11.06c1.3,3,1.13,5.28,1.12,7.57q-.17,54.48-.36,109c0,1.15,0,2.31-.08,3.47a4.09,4.09,0,0,1-2.49,3.82c-5.9.58-12.09-.6-18,.3-1.72,5-1.64,8.9.15,13.28,2.83,1.64,6,.83,9,1s5.8.08,8.7,0,6.2.54,9.67-1.39a19.05,19.05,0,0,0,1.64-4.26,61.84,61.84,0,0,0,.73-9.22q.19-60.84.28-121.7t.14-121.69c0-2.71.16-5.41.2-8.11.09-7.49-2.54-11-9.61-13-5-1.4-10-2.81-15.07-4.17-1.28-.34-2.61-.5-3.51-.66a5.73,5.73,0,0,0-4,5.07,94.62,94.62,0,0,0-1.1,11.49q-.36,53.61-.5,107.21a60.79,60.79,0,0,0,.73,9.81c.52,3.21,1.35,6.45,4.63,9.08Zm42,138.14c3.21-2.6,3.87-5.42,4.11-8.33.23-2.7.3-5.41.3-8.11q0-55.62,0-111.25a76.08,76.08,0,0,0-.48-8.67c-.39-3.31-1.35-6.44-4.68-8.84-1.42-.31-3.29-.78-5.18-1.11-2.66-.47-5.36-.73-8-1.3a18.34,18.34,0,0,1-3.54-1.62c-.08-1.84-.21-3.37-.22-4.9q-.15-49.54-.29-99.08a25.07,25.07,0,0,1,.07-3.47,16.65,16.65,0,0,1,1-2.86c1.95.44,3.62.77,5.26,1.21,3.17.84,6.32,1.8,9.5,2.6a20.83,20.83,0,0,0,3.47.28c.41-4.13,1.14-7.9-1-11.85-6.86-2-13.86-4.17-20.91-6.14-1-.27-2.19.27-3,.39a12,12,0,0,0-1.05,1.17c-2.24,3.6-2.51,7.58-2.5,11.7q.21,71,.3,142c0,33.41,0,66.83,0,100.24,0,3.47.34,6.94.65,10.39a9.78,9.78,0,0,0,4.42,7.75C185.07,368.77,192.56,369,199.83,368.52ZM81.09,68.4c-2.2,2.17-1.57,4.81-1.59,7.25q-.44,54.45-.78,108.9-.52,88-1,176.09c0,2.09-.53,4.25.73,6.53a6.12,6.12,0,0,0,6.92,1.12c2.06-2.39,1.78-5,1.8-7.45q.19-17.38.32-34.76.38-62.26.73-124.54T89.23,77c0-2.47-.17-4.94-.25-7.15C86.22,67.77,83.7,67.47,81.09,68.4Z"></path>
            <path class="cls-1" d="M966.47,431.82a11.51,11.51,0,0,1-.63-2.29q0-188.92.06-377.85a14.86,14.86,0,0,1,.42-2.42,23.26,23.26,0,0,1,7.12-2.15c18-3.32,36-6.68,54.08-10,26.19-4.77,52.4-9.46,78.6-14.23,7.4-1.34,14.76-2.91,22.16-4.22a43.65,43.65,0,0,1,7.49-.58q31.59,0,63.17.09c2.27,0,4.7-.45,6.94,2.16.08,1.12.29,2.82.29,4.51q0,56.22-.07,112.43,0,107.2.05,214.42,0,31.57-.13,63.16c0,4.25-.16,8.5-.34,12.74a20.85,20.85,0,0,1-.76,3.42,16.28,16.28,0,0,1-2.88.71c-1.73.12-3.48.06-5.21.06H966.47Zm63.09-63.95c5.06.84,18.44.81,23.12,0,2.35-1.44,3.1-3.79,3.26-6.38.21-3.28.47-6.56.47-9.83q-.08-120.21-.22-240.41c0-2.51,0-5-.18-7.53-.21-2.72-.85-5.32-3.19-7-6.08.13-19.72,2.74-23.92,4.56-2,1.83-2.36,4.35-2.65,6.83a62.93,62.93,0,0,0-.39,7.52q.06,118.17.18,236.35c0,3.08.26,6.17.53,9.24A9.9,9.9,0,0,0,1029.56,367.87Zm71-279.93a44.13,44.13,0,0,0-1.8,6.43,83.75,83.75,0,0,0-.67,10.38q-.06,66,0,132,0,57.06,0,114.11a54.23,54.23,0,0,0,.91,9.77c.53,2.81,1.44,5.64,4.07,7.31,5.33.86,20.87.87,25.39,0,2.38-2.79,2.37-2.8,2.9-4.81a45.22,45.22,0,0,0,1.14-11.48q-.1-37.65-.14-75.3,0-22-.12-44a46.55,46.55,0,0,0-1.79-13.73c-.59-1.95-1.48-3.54-3.42-4.28-6-1.32-11.86,1.4-17.45.66-2.15-2.63-1.53-5.24-1.53-7.68q-.12-50.12-.15-100.21a28.65,28.65,0,0,1,0-3.47c.16-1.29.54-2.56.84-3.89,6.32-2.55,13.22-1.8,19.4-4.64a21.51,21.51,0,0,0-.06-12.11C1119,84.41,1110.07,86,1100.58,87.94Zm-35.53,132.51a36.49,36.49,0,0,0-2.16,6,58.28,58.28,0,0,0-1.17,10.34q-.1,58.25,0,116.5a60.55,60.55,0,0,0,1,9.17,8.09,8.09,0,0,0,2.94,5.43c6.11,1.07,22.25.93,27-.22,1.2-4.38,1.21-7.62-.1-12.77-6.68-.72-13.63.35-20.19-.47-1.83-2.49-1.32-4.88-1.32-7.14q0-40.29.05-80.57c0-9.27,0-18.54,0-27.82,0-1.89-.38-3.89,1.36-6.11,1.38-.24,3.24-.64,5.12-.85,2.11-.24,4.24-.28,6.36-.45,5.86-.5,8.06-2.26,8.91-7.94a84.29,84.29,0,0,0,.9-12.7q-.06-53.31-.31-106.64c0-1.93,0-3.86-.1-5.8,0-1.15-.16-2.31-.26-3.46a5.33,5.33,0,0,0-3.39-4.75c-4.35-.38-8.79,1.18-13.33,1.94s-9.12.89-13.43,3c-.13,3.86-.64,7.47.4,11.19,6.55,1.12,12.65-1.87,18.64-1.53,2.28,1.9,1.69,4.17,1.69,6.22q.15,49.26.2,98.53a17.31,17.31,0,0,1-.14,3.46,34.6,34.6,0,0,1-1.19,3.92C1076.9,219.36,1070.91,217.56,1065.05,220.45ZM1010,116.9c1.61,1.87,1.09,3.89,1.11,5.75q.35,46.64.63,93.28a39.34,39.34,0,0,1-.08,5.21,18,18,0,0,1-1.18,3.55c-5.11,1.71-10.45.25-15.13,2.79a13.85,13.85,0,0,0-3.21,8.44c-.14,2.89-.28,5.78-.28,8.68q0,52.14,0,104.28c0,2.71-.08,5.42.15,8.11a66.85,66.85,0,0,0,1.2,7.41,4.47,4.47,0,0,0,2.75,3.5c8.25.72,20.09.5,24.08-.44,1.39-4.76,1.33-7.93-.29-11.72-5.63-.71-11.45.68-16.89-.42-2.27-2.61-1.82-5.4-1.83-8.05q-.18-49.83-.3-99.65c0-1.55,0-3.1.11-4.63s.38-3.1,2.13-4.2c3.19-.32,6.64-.61,10.08-1,4.79-.58,6.5-2.06,7.15-6.81a85.62,85.62,0,0,0,.8-11.54q0-50.11-.1-100.23c0-3.47-.33-6.94-.59-10.4a6.84,6.84,0,0,0-3.21-5.85,15.39,15.39,0,0,0-3.45,0c-6.76,1.42-13.72,1.91-20.43,4.08a16.55,16.55,0,0,0,.09,11.22C999.23,118.91,1004.58,116.3,1010,116.9Z"></path>
            <path class="cls-1" d="M541.75,431.62h-70c-1.65-1.62-1.08-3.46-1.09-5.12q0-30.13,0-60.27c0-1.73.06-3.48-.09-5.21a20.12,20.12,0,0,0-18.1-18.15A19.51,19.51,0,0,0,431.74,357a30.65,30.65,0,0,0-.79,8c0,19.89,0,39.79,0,59.68,0,2.1-.05,4.19-.08,6.48-4.48,1.24-8.72.48-12.89.61-4.44.14-8.89,0-13.33,0H392.18c-1.63-2.51-1.06-4.9-1.07-7.16q-.06-37.67,0-75.33c0-1.74,0-3.48,0-5.22.16-5.21-1-9.95-4.7-13.87a7.55,7.55,0,0,1-1.19-1.94c-.14-.31,0-.75,0-1.4,4.44-1.91,9.51.28,14.22-1.89,1.18-2.4.21-5.05.12-7.57L397.44,315c.25-1.17.53-2.45.85-4-1.47-5.72-1.47-5.72-5.38-9.76v-3.89a5.24,5.24,0,0,1,1.67-.68c4.42-.05,8.85,0,14.05,0-1-1.67-1.7-2.68-2.31-3.72-2.4-4-2.41-8.09.19-12a8.5,8.5,0,0,1,9-3.95,68.17,68.17,0,0,0,39.8-5.46c.19-.87.44-1.94.72-3.18.5-.39,1.09-.89,1.72-1.32,1.26-.88,2.56-1.73,4.07-2.74l2.33,1.38A23.84,23.84,0,0,0,475.26,252l-5.89-1c-.62-4.16-.62-4.16,4.92-11.74V204.6c-2-3.89-6.1-6.32-6-11.14l-7.14-.47c-1.5-1.59-1.07-3.25-.63-5a4.91,4.91,0,0,1,1.55-.61c5.41-.07,10.81-.07,16.22-.13,1.89,0,3.78-.16,5.92-.25,1.24-7.13,0-14.08.81-21,4.63-2.37,9.77-2.39,14.29-4,5.12,1.19,10,2,14.9,3.7.2,3.06.39,5.9.61,9.05,7.11,1,14,.41,20.9.46,6.71,0,13.43.36,20.45-.28.23-2,.43-3.62.65-5.43,3-1.35,6.24-.06,9.46-1.19.24-2.26.47-4.48.74-7,1.3-.15,2.41-.35,3.53-.37,23.83-.61,68.78-.29,74.42.57.26,2.11.54,4.33.81,6.61,2.82,1.38,5.87.07,8.86,1.2.37,1.71.75,3.52,1.12,5.24,4.64.83,23.6,1.14,37.79.62a32.12,32.12,0,0,0,3.64-.55c.2-3,.4-5.84.6-8.86,4.57-2,9.43-2.32,14.27-3.82l14.32,3.42c1,3.76.39,7.25.55,10.69s-.31,6.91.39,10.65a34,34,0,0,0,3.94.53c5.22.06,10.43,0,15.65,0,1.49,0,3,.24,4.73.39v4.56c-.5.34-.79.7-1.12.73-2.11.18-4.22.28-6.69.43l-1.36,4.51-4.88,6.36v35.11l5.12,6.75v5l-6.33.62a15,15,0,0,0,1,3.21,35.56,35.56,0,0,0,9.69,10.83l3.2-1.63,6.06,4.19v3c3.24,2.09,7,3.12,10.67,4.09a82.44,82.44,0,0,0,24.69,2.46,27.21,27.21,0,0,0,4-.67A9.71,9.71,0,0,1,807.16,289c-.52,2.35-1.94,4.5-3.13,7.15,1.39.66,3.08.31,4.69.37s3.09,0,4.63,0c1.72,0,3.43.14,5.54.23.15,1.62.28,3.06.43,4.56-3.52,2.23-4.93,5.53-5.79,9.39.34,1.13.72,2.39,1.17,3.86l-2.31,2.77c-.24,2.25-.51,4.71-.78,7.19,4.77,2.68,9.83.7,14.85,2.09-.22,1.14-.06,2.47-.65,3.11-4.44,4.75-5.22,10.44-5.19,16.65.14,26.07.06,52.15.06,78.23v6.41c-4.5,1.45-8.75.58-12.92.73s-8.5,0-12.75,0H782.43c-1.69-2.16-1.09-4.36-1.09-6.39q-.08-29.55,0-59.11c0-1.54.05-3.09,0-4.63a20.29,20.29,0,0,0-17.39-18.87c-10.27-1.25-19.48,4.71-22.11,14.57a32.06,32.06,0,0,0-.93,8c-.08,19.7-.06,39.41-.08,59.11v6.55a13.77,13.77,0,0,1-2.91.72q-32.45.06-64.9,0a17.25,17.25,0,0,1-2.39-.35c-.87-2.13-.54-4.27-.54-6.33q0-42,0-84a93.94,93.94,0,0,0-2.21-21.27,54.62,54.62,0,0,0-11.51-23.1c-6.38-7.63-13.65-14.21-22.59-18.73-23.65-12-48.45-7.65-67.2,7.83a93.84,93.84,0,0,0-11.37,11.53c-8,9.45-11.73,20.73-12.72,33-.37,4.61-.43,9.26-.43,13.89q-.06,40.27,0,80.55C542,426.82,541.83,428.91,541.75,431.62Zm112-211.6h-1.23c-1.11.88-1.77,1.81-.38,3a3.34,3.34,0,0,0,2.62-3.09l.22-.15-.14.23C654.47,220,654.11,220,653.75,220ZM555.16,213l-4.46.3c-1,1.34-3,1.84-2.47,4.45a55.69,55.69,0,0,0,5.4-2.65c.68-.42,1-1.46,1.45-2.22l3.65,1.84.91-2.12C557.8,211.21,556.36,211.07,555.16,213ZM544.7,231.43c2,.56,3.29-.7,4.61-1.76s2.77-2.51,4.41-4c.95,1.58,1.69,2.88,2.49,4.14,2.15,3.37,3.39,3.71,8.63,2.08a20.4,20.4,0,0,1-8.47-8.17c.29-1.42.51-2.52.76-3.73l-1.89-2.07-2.48,1.64-2.27-.45c.44,1.44.81,2.65,1.23,4l-6.9,8.42-.32.1Zm82.4-9.24c.94,3.14,2,6.21,6,7.26,1-.72,2.1-1.45,3.13-2.26.19-.15.12-.64.21-1.25-2.87.13-5.18-1.14-7.33-2.88a6.87,6.87,0,0,0-2.08-.76c-.1-3.58,1.67-5.74,5-6.84a32.21,32.21,0,0,0,4.13-2.12l-4.44-1.59,1.81-6-1.88-1.13c-2.54,2.72-2.7,6.9-5.57,9.14l-4.07.76,1.91,3.38a50.15,50.15,0,0,1-3.53,5.29c-2.47,2.87-5.18,5.54-7.82,8.33.83.74,1.55.16,2.15-.17a28.31,28.31,0,0,0,8.68-6.63A6.25,6.25,0,0,1,627.1,222.19ZM662,215.44c1.77-.71,2.64.58,3.83,1.87,2.56-.93,5.27-1.8,7.87-2.93.59-.25.81-1.37,1.41-2.5l-6.6-.36,7.2-10.37-4.45.43.79,2.16c-1,1.07-2.06,2.26-3.43,3.78-1-1.6-1.62-2.72-2.29-3.83l1.41-.59-1.41-.55c.66-.9,1.32-1.8,2.15-2.91l-1.93-1.94L661.28,205c-.21.91.75,2.6-1.39,2.83a6.87,6.87,0,0,0-3.18-2.9c-.83,3.12,2.78,5.06,2.32,7.95l3.72-.46c-.26,1.41-.43,2.29-.59,3.17h-.51Zm-72.79,12.14,3.39.72c1.08-5.05,2.07-9.71,3.1-14.54-.42-1.7-.91-3.67-1.36-5.45a23,23,0,0,0,2.22-3.19,9.19,9.19,0,0,0,.26-2.76c-4.45.85-7.23,3.64-10.34,5.81-1.12.78-2.55,1.49-2.85,3.29,3.68.89,5.19-2.48,8.31-3.65-.53,2.25-1,4.06-1.61,6.93-1.14,1.17-2.86,3-4.57,4.74a6.77,6.77,0,0,0-1.62,4.48c0,.89.5,1.87,2.07,1.43.25-.77.55-1.65,1-3.06C588,224.28,588.52,225.69,589.23,227.58Zm80.69-6.19-4.23-.89-1.54-2.13-4.41,1.78,2.39,1.53c-1.62,1.87-4.19,1.89-6.37,4.57l6.87-1.52c.13,2.15.62,4.16-1,5.91l-5.31.25c2.82,2.11,5,3.5,7.59,3.57.53-.56,1-.84,1-1.12.06-3,0-6.07,0-8.78C666.49,222.85,669.37,224.46,669.92,221.39ZM598.05,232c-3.4-.5-5.68-.69-7.88-1.21s-4.36-1.36-6.52-2.06c-.46-.55-.89-1.09-1.24-1.52l-3.52,1.39,13.4,6.75Zm-45.84-22.62a17.23,17.23,0,0,0,10.07-2.56c.15-.1,0-.63,0-1.37l-4,.43a14.17,14.17,0,0,0-2-1.71,15.82,15.82,0,0,0-2.71-1C553.09,205.23,552.7,207.05,552.21,209.37Zm28.48,9.68-.92.81,1.49,3.22,1.84-1.8Zm73.59-10.28c-.6,1.74-.33,3,1.62,3.93C656.56,210.69,656.14,209.52,654.28,208.77Z"></path>
            <path class="cls-1" d="M310.73,431.13c-5.19.81-46,1-53.7.36a24,24,0,0,1-.68-3.11c-.13-1.34,0-2.71,0-4.06V66.13c0-2.48.08-5,.13-7.79,5.32-1.35,10.3-2.72,15.35-3.83a10.15,10.15,0,0,1,4.58.18c10.85,2.76,21.66,5.64,32.49,8.48a10.38,10.38,0,0,1,1.16.51c1.16,1.89.6,4.07.61,6.13q.09,66.38.1,132.73,0,110.42,0,220.83Z"></path>
            <path class="cls-1" d="M902.26,75.32l36.07-7.11c5.6,1.27,11.34,4,17.27,6a19.3,19.3,0,0,1,.4,2.63q0,176.39,0,352.77a5.46,5.46,0,0,1-.45,1.54c-4.83.9-48.06.94-53.43,0a30.2,30.2,0,0,1-.43-3.2C900.87,407.61,901.38,81,902.26,75.32Z"></path>
            <path class="cls-1" d="M321.35,73.26c5.17-1,10-2,15-2.8a14.46,14.46,0,0,1,5.16.23c8.67,1.91,17.3,3.93,25.94,6a28.55,28.55,0,0,1,2.93,1.07V431.23a20.68,20.68,0,0,1-3.33.56q-21.15.06-42.29,0a34.94,34.94,0,0,1-3.52-.37c-.15-1.18-.36-2.09-.39-3C320.22,411.67,320.65,79.46,321.35,73.26Z"></path>
            <path class="cls-1" d="M891.54,431.11c-5.56.92-44.08.95-49.44.1-.83-1.88-.45-4-.45-6.08q0-71,0-141.95,0-95,0-190c0-2.29.09-4.57.15-7.08C847.51,84.6,853,84,858.5,83s11-1.94,16.88-3l15.78,4.73a28.82,28.82,0,0,1,.36,3.12Q891.55,259.36,891.54,431.11Z"></path>
            <path class="cls-1" d="M380.9,85.13c3.87-1.07,7-2,10.16-2.77a10.3,10.3,0,0,1,4,0c8.55,1.49,17.08,3.06,25.61,4.63a5.84,5.84,0,0,1,1.42.64,5,5,0,0,1,.45.57,1.24,1.24,0,0,1,.18.54q.09,89.49.17,179a27.63,27.63,0,0,1-.13,2.88,5.85,5.85,0,0,1-.62,1.42c-1.72-.33-3.53-.74-5.36-1-8-1.29-14.65,2.51-17.41,10.07a21.47,21.47,0,0,0-.9,5.08,40.09,40.09,0,0,0,0,4.13c-3.69,1.19-7.45,0-11.27,1-.78,4.48-.12,8.87-.33,13,1.58,1.56,3.35,2.67,4.14,4.27s.77,3.72.86,5.63-.13,3.78-.21,5.57c-4.59,1.09-5,1.09-10.08.18-1-1.87-.61-4-.62-6.09q0-28.09,0-56.18V85.13Z"></path>
            <path class="cls-1" d="M830.86,320.16h-9.8c-.45-5.73-2.31-11.55,3.89-15.63a70.28,70.28,0,0,0-.12-13.29c-3.9-1.1-7.63-.06-11.44-1,0-1.2-.09-2.31,0-3.4.53-5.5-1.94-9.74-5.74-13.31-3.26-3.06-7.29-3.22-11.44-2.5-1.51.26-3,.55-4.54.71a6.49,6.49,0,0,1-1.91-.53c-.1-1.09-.27-2.21-.3-3.32-.77-32.45-.35-167.89.58-174.12,10.62-2.17,21.55-3.18,32.44-5l8.61,3.38c.13,1.88.31,3.4.33,4.92C832.17,149.77,831.81,313.45,830.86,320.16Z"></path>
            <path class="cls-1" d="M447.59,268.08c-4.69,1.29-8.95,3.18-13.94,2.85a23.17,23.17,0,0,1-.54-2.88c-.59-11.17-.15-170.14.49-174.64,3.48-1.32,7.09-2.66,11-2.14,6.89.9,13.76,1.91,20.64,2.92,1.13.17,2.23.57,3.58.92a20.64,20.64,0,0,1,.54,3.3q.06,39.71,0,79.4a27.24,27.24,0,0,1-.33,3c-4.59,1.38-9.29-.05-13.81,1-1.54,2.58-.68,5.35-.83,8s0,5.38,0,7.93c2.58,2.22,5.54.6,8.37,1.69l6.17,7.82v29l-5.39,6.83c-.07,1.1-.2,2.63-.24,4.15,0,1.74-.1,3.49,0,5.22.11,1.48.46,2.95.77,4.81l-4.6,1C455.75,261.21,450.8,263.28,447.59,268.08Z"></path>
            <path class="cls-1" d="M778.71,271.31a39.68,39.68,0,0,1-12.32-2.48l-14.14-11.67-3.38,2-1.8-1.27c.56-1.14,1.41-2.1,1.45-3.1.16-3.84.06-7.69.06-11.64l-2.75-3.72-2.45-3.26V207.25l6.14-8.09,6.54-.43c1.32-3.62,1.52-9.53.59-16.9-4.17-1-8.64.1-13.09-.72-1.14-2-.74-4.19-.74-6.23q-.08-31.56-.06-63.1c0-2.71,0-5.41,0-8.11,0-1.13.18-2.26.27-3.3,3.56-1.35,19.61-3.7,28.41-4.17l7.43,3.75c.15,1.53.36,2.85.38,4.17C780,138.78,779.62,264.82,778.71,271.31Z"></path>
            <path class="cls-1" d="M966.92,518.17l-9.49-.61c-1.46-2.66-1-5.25-.47-8,3.13-1.58,6.59-.09,9.83-1.2,1.85-2.53.83-5.51,1-8.3s0-5.76,0-8.64c3.51-1.65,6.64-1.09,10.08-.25-.08,5.63-1,11.17-.06,16.67,2.36,1.57,4.61.72,7.22.84.43-2.48.81-4.66,1.26-7.22,5.46-1.1,11.09.18,16.6-.71,1.12-2.86-.91-5.48-.06-8.09,3.26-1.57,5.12-1.73,11.51-.94.74,2.76,1.52,5.69,2.35,8.81,6.11,1.31,12.34-.25,18.55.95,1.13,2.7.65,5.32.41,7.83-1.77,1.68-3.79,1.14-5.66,1.15-12.36,0-24.72,0-37.08,0-1.89,0-3.78.14-5.89.23-.45,2.36-.82,4.37-1.26,6.66l-7.31.87a5.15,5.15,0,0,0-.23,5.84c.76-.15,1.47-.25,2.16-.45a17.93,17.93,0,0,0,1.81-.74l4.21,4.82c5.12-4.38,7.69-10.41,12.11-15.09a25.7,25.7,0,0,1,9.25,5.32l-7.5,9.44c.13,2.45,2.22,1.12,3.37,2.22.77,2.21,1.55,4.79,2.58,7.27.93,2.25,1.55,4.73,3.68,6.78,3.92-4.2,3.13-10,5.81-14.53h6.72c-2.17-4.71-7-6.57-9.3-10.93,1-1,2-2.17,3-3.2s2.28-2,3.35-2.92c4.55,2.43,13.46,9.92,18,15.17-2,3-5,5-7.52,7.76l-3.24-1.2c-.33.26-.78.42-.88.71-2.15,6.19-4.27,12.39-6.55,19,.58,1.83,2.69,2.59,4.57,3.4,3.19,1.37,6.5,2.46,9.75,3.68,1,.39,2,.82,3.55,1.42l-6.23,9.46c-4.18-.43-7.18-3.06-10.58-4.68s-6.85-3.57-10.53-5.51c-6.85,3.57-13.45,8-21,10.67-3-2.29-5.18-5.14-7.51-8.55,3.84-1.61,7.38-3,10.86-4.57a38,38,0,0,0,9.43-5.62c-.32-3.41-2.63-5.74-3.6-8.61s-2-5.81-3.14-8.94l-4.76-.71c.08,1.25.15,2.3.25,3.68a24.17,24.17,0,0,1-8.88,3.72c-1-1.52-1.87-2.91-2.74-4.26-1.72.68-1.37,2-1.37,3,0,7.92,0,15.84,0,23.76,0,1.9-.14,3.79-.21,5.55-4.1,1.34-4.1,1.34-9,.34-1.07-7.65.17-15.54-.7-23.61-2.92.54-2.9,3.79-5.37,4.79a36,36,0,0,1-6.73-5.76c.2-2.37,1.78-4,2.64-5.86,2.36-5.28,4.82-10.52,7.1-15.84A53.15,53.15,0,0,0,966.92,518.17Z"></path>
            <path class="cls-1" d="M861.1,523.7c9.38-9.85,15.75-20.79,20.57-32.84,4.31.24,8,1.92,12.16,2.95-.41,1.23-.65,2.08-1,2.9s-.63,1.33-.93,1.94c.46.41.71.85,1,.87,1.73.13,3.47.22,5.2.23,10.43,0,20.85,0,31.28,0,1.89,0,3.88-.43,5.8,1a27.3,27.3,0,0,1,.39,3.22c0,1.53-.14,3-.25,4.91a23.66,23.66,0,0,1-3.91.74c-4.63.08-9.27,0-13.9,0-1.9,0-3.8.14-5.76.21-1.66,3.18-1.17,6.15-.51,9.5,6.67,1.14,13.45-.2,20.24.86a13.91,13.91,0,0,1,.09,8.7c-6.72,1.38-13.53-.41-20.25,1.12a22.67,22.67,0,0,0,0,11.13c1.25.14,2.36.36,3.47.37,6.76,0,13.52,0,20.28,0,1.9,0,3.87-.3,5.74.82a16,16,0,0,1,0,8.78c-5.07.66-10.06.13-15,.33-4.76.2-9.58-.54-14.49.54-1.31,6.45.06,12.85-.91,19.32-3.52,1.66-7.09.95-10.92.58-1.73-6.47.21-13.11-1.1-19.31-1.63-1.52-3.44-1.11-5.13-1.12-8.5,0-17,0-25.49,0-1.9,0-3.81-.11-5.85-.18a11.39,11.39,0,0,1-.26-9c4.36-1.67,9,.21,13.17-1.24,1-3.59,1.19-10.65.33-15.52-2.47,0-2.92,2.94-5.55,3.62-1.06-.64-2.51-1.49-3.93-2.38S863.1,525,861.1,523.7Zm18.33-4.87c5.39,1.35,14.47,1.3,18.7.1.88-4.73.88-4.73-.37-9.17-3.79-.87-7.74-.52-12.06-.3Zm18.88,22.06c.47-3.93,1-7.44-.45-11-3.57-.46-6.89-.92-10.31.44-.53,3.76-1.11,7.26.55,11C891.39,541.54,894.56,541.91,898.31,540.89Z"></path>
            <path class="cls-1" d="M773.44,494c7.39-.84,61.46-.64,65.95.22a42.46,42.46,0,0,1,.45,4.37c0,21.43-.05,42.87.09,64.31,0,4.39-1.59,7.63-7.19,8.93a18.56,18.56,0,0,1-10.16,0,3.54,3.54,0,0,1-.56-1c-.42-2.25-.79-4.52-1.24-7.07l7.36-1.93c1-5,.37-9.79.47-14.57.11-5,0-10,0-15.06,0-4.83,0-9.66,0-14.48s.29-9.58-.28-14.57c-5.87-1.21-11.4-.36-16.62-.56-1.88,2-1.52,3.84-.92,5.89,3.84,2.17,8.36-.14,12.23,1.48.93,3.39.93,3.39.08,6.91-3.77,1.35-8-.21-12.27,1.17-.12,1.36-.24,2.78-.37,4.22,4.68,2.33,9.53.08,14.1,1.71a8.12,8.12,0,0,1,.15,6.55,5.68,5.68,0,0,1-1.72.63q-16.5.1-33,.1a12.64,12.64,0,0,1-2.23-.41c-1.13-2.16-.83-4.22-.4-6.71a35.42,35.42,0,0,1,3.69-.73c2.47-.25,5,.39,7.91-.71.19-1.23.42-2.63.63-3.93-.84-.54-1.3-1.06-1.8-1.1-1.72-.17-3.47-.13-5.19-.26-1.31-.1-2.62-.35-3.75-.51-1.42-2.28-.79-4.34-.58-6.37,3.38-2.39,7.47.08,11-2.18v-4.72c-3.77-1.34-7.93-1.49-14.31-.58-1.48,1.35-1.08,3.18-1.09,4.86q-.07,12.18,0,24.34a82.86,82.86,0,0,1-2.59,21.21A40.57,40.57,0,0,1,773.72,569a31.71,31.71,0,0,1-2.26,2.27l-7.7-5a7.28,7.28,0,0,1,.47-1.95c6.31-9.73,8.55-20.62,8.79-32,.22-10.81.08-21.63.13-32.45C773.16,498,773.33,496.15,773.44,494Z"></path>
            <path class="cls-1" d="M140.14,534.53c-1.47,3.3-.67,7.13-4,9-4.15-.57-2-5.32-5.14-6.87a11.21,11.21,0,0,0-2.72,1.12,29.55,29.55,0,0,0-9.84,12.63c-.61,1.41-1.09,2.9-1.8,4.25-.3.57-1.07.89-1.74,1.41-2.79-2.58-.18-6.3-2.51-9.07a12,12,0,0,0-2.5,1c-4.2,3-6.78,7.32-8.79,12-1.22,2.82-2,5.85-4.06,8.19-4.17,1.77-7.12-.18-9.94-2.84-1.1-4.38,1.06-8.17,1.18-12.89l5.36,2.45c4.46-2.11,19.77-15.38,24.39-21.22V520.32l7-7.22c-2.57-3.18-7.05-3.27-8.73-6.79a1.68,1.68,0,0,1,2.1-1.52c9.76,1.13,18.18-2.33,26.22-7.37,4.56-2.86,9.29-5.45,13.83-8.09a5.53,5.53,0,0,1,4.28,2.94,5.68,5.68,0,0,1,.36,5.26c-3.38,1.75-7,3.5-10.48,5.45-3.32,1.85-6.94,3.35-9.13,6.72a59.22,59.22,0,0,1,2.32,6c.48,1.81,0,3.93,2.32,5.28,5.76-1.17,10.38-5.26,15.52-7.57,4.46,1.37,4.46,1.37,7.41,4.64a7.51,7.51,0,0,1-1.43,6,135.24,135.24,0,0,0-16,34.53c-.39,1.3-.85,2.57-1.35,3.82-2.2,5.58-4.29,6.75-10.7,6.08-2.84-1.49-2.58-5.76-5.85-6.64-1.83,0-2.58,1.11-3.17,2.36-.5,1-.92,2.11-1.47,3.42-5.1,2.45-10,.27-15.2-.27-.08-1.42-.13-2.32-.19-3.37a23.69,23.69,0,0,1,3.43-2.25c3-1.3,6.09-2.42,9.15-3.61,3.39-1.33,6.74-1.54,10,.31a9.12,9.12,0,0,0,2,.52l3.12-1.5a51.57,51.57,0,0,0,1.21-6.11,18.61,18.61,0,0,1,2.32-7.69q3.94-7.08,7.92-14.12c.75-1.34,1.53-2.66,2.24-3.88-1.05-2.5-2.8-2.11-4.41-1.3C147.6,526.88,143.11,530.15,140.14,534.53Zm-1.56-11.4c.73-3.19,1.64-6.36-.66-9.16a5.23,5.23,0,0,0-5.14-.67c-4.5,2.12-8.88,4.47-12,8.53,1,3.71,1.83,7,6.08,8C131.33,528.67,135.6,527.13,138.58,523.13Z"></path>
            <path class="cls-1" d="M506.85,99.88c0,18.07,0,35.61,0,53.15,0,1.11-.21,2.23-.36,3.7l-6.81-1.24L480,161.12c-.92,6.6,0,13-.58,19.19-1.26.22-1.52-.43-1.55-1.24,0-1.35,0-2.71,0-4.06q0-35,0-70c0-1.89.15-3.78.23-5.7a19.53,19.53,0,0,1,12.07-1.62c4.17.73,8.42,1.06,12.63,1.59C503.81,99.38,504.93,99.58,506.85,99.88Z"></path>
            <path class="cls-1" d="M734.38,104c0,24.85,0,49.51,0,74.17a11.45,11.45,0,0,1-.35,2c-.47.07-.7.17-.84.1a.59.59,0,0,1-.25-.49c0-6,0-11.92,0-17.73-3.12-2.62-6.65-2.94-9.91-3.94s-6.65-2-10-3l-7,1.5c-.39-.37-.54-.47-.66-.62a1,1,0,0,1-.26-.49q-.12-24.3-.18-48.6c0-1,.15-1.9.25-3,3.91-1.53,8-.92,12-1.46s7.64-1,12-1.52Z"></path>
            <path class="cls-1" d="M712.42,531.82c.43-3.72.7-8.17,1.52-12.51a36.68,36.68,0,0,1,2.95-8.73c3.25-6.88,8.88-10.66,16.45-10.93,7.73-.28,13.83,3.05,17.93,9.68a23.23,23.23,0,0,1,2.43,5.23,56.14,56.14,0,0,1,.33,34.19c-2.11,6.84-6.3,11.86-13.25,14.27A19.37,19.37,0,0,1,717,553.88a31.4,31.4,0,0,1-3.54-11C713,539.48,712.8,536,712.42,531.82Zm21.82,24.26c5.23-1.66,6.52-5.78,7.29-10a77.15,77.15,0,0,0,0-27.65,19.66,19.66,0,0,0-2.73-6.92c-2.35-3.67-5.87-3.74-8.6-.45a10.74,10.74,0,0,0-2,3.47,25.21,25.21,0,0,0-1.44,6.75c-.18,7.33-.17,14.66,0,22a25,25,0,0,0,1.28,6.21A9.43,9.43,0,0,0,734.24,556.08Z"></path>
            <path class="cls-1" d="M1098.64,547.71c-2.45,3.42-4.37,6.5-6.69,9.23a97,97,0,0,1-8.09,8.26,41.39,41.39,0,0,1-9.19,6.58l-7-8.45c.86-2.15,2.85-2.73,4.38-3.76,6.18-4.17,11.44-9.2,15-15.8,1.44-2.67,3-5.37,2.9-8.85-5.11-1.75-10.41,0-15.45-1.2a12.7,12.7,0,0,1-.23-8.28c5.47-1.58,11.17.34,16.56-1.18,1.81-3.58.08-7.44,1.44-11.22a20.1,20.1,0,0,1,12.33.26V524a16,16,0,0,0,3.37.83c4.44.1,8.88,0,13.32.06,1.71,0,3.42.16,5.1.24,1.39,2.87,1,5.47.42,8.45a28.54,28.54,0,0,1-3.87.58c-4.44.07-8.88,0-13.32.06a21.42,21.42,0,0,0-3.51.68c1.47,6.8,5.08,11.9,9.66,16.4s10.13,6.87,16.09,9.67l-7.25,11.71a19,19,0,0,1-3.25-1.11,52.48,52.48,0,0,1-19.78-19.07C1100.74,551,1099.82,549.61,1098.64,547.71Z"></path>
            <path class="cls-1" d="M1059,500.65c1.56-1.27,3.36-.87,5.06-.88,6.37,0,12.75,0,19.12,0,1.69,0,3.51.41,5.16-1.09-.41-1.91-.84-3.93-1.34-6.23,4.25-2.66,8.73-2.42,13.54-2.25l2.47,8.93c4.66,1.19,9.1.51,13.49.63s8.86,0,13.12,0c1.58,4,1.59,4.49.45,9.21-1.73,1.16-3.71.67-5.59.67-15.45,0-30.9,0-46.36,0-2.09,0-4.18.12-6.55.19a25.93,25.93,0,0,0-.78,4.12c-.11,5.79,0,11.59-.17,17.38-.26,6.74-.45,13.51-2,20.14a48.13,48.13,0,0,1-9.21,18.53,6.64,6.64,0,0,1-1.3,1.1,3.94,3.94,0,0,1-.86.25l-8.33-6.28a14.56,14.56,0,0,1,1.24-2.5c4.37-5.7,6.35-12.33,7.37-19.27a89.07,89.07,0,0,0,.82-11.55c.12-8.49,0-17,.06-25.49C1058.44,504.38,1058,502.42,1059,500.65Z"></path>
            <path class="cls-1" d="M480.17,660.18c6.77,13.29,12.49,26.32,18.8,38.93,1.91-.48,1.55-1.59,1.55-2.45,0-9.86,0-19.71,0-29.56v-5.68c3.24-1.95,6.24-1.23,9.45-.88a11.34,11.34,0,0,1,.74,2.77q.07,22.89,0,45.79a13.88,13.88,0,0,1-.46,2.47c-5,1.31-9.93.37-15,.63-3.07-4.3-4.5-9.19-6.77-13.62-2.37-4.64-4.24-9.54-6.64-14.16-2.25-4.33-3.52-9.19-7.22-14-.27,2.28-.53,3.52-.54,4.76,0,10.24,0,20.48,0,30.72,0,1.88.36,3.85-.79,5.81a20.14,20.14,0,0,1-8.72.1,12.18,12.18,0,0,1-.66-2.75q-.06-22.89,0-45.79a14.79,14.79,0,0,1,.38-2.31c2.67-1.43,5.42-.64,8-.78S477.27,660.18,480.17,660.18Z"></path>
            <path class="cls-1" d="M524.3,660.42h16c6.68,12.76,12.43,26,18.84,38.82,1.92-.76,1.52-2,1.52-3.12,0-9.66,0-19.32,0-29,0-1.92,0-3.83,0-5.65,3.19-2.09,6.23-1.26,9.46-1a12.51,12.51,0,0,1,.64,2.77q.06,22.89,0,45.78a21.39,21.39,0,0,1-.35,2.54c-5,1.3-9.9.34-15.1.64-.9-1.64-1.81-3.09-2.53-4.63-5.14-11-10.23-22.07-15.36-33.11-.62-1.33-1-2.86-3-4-.48,4.9-.17,9.29-.22,13.66-.06,4.64,0,9.27,0,13.91,0,4.42-.06,8.84-.1,13.29-3.26,1.46-6.25,1-9.61.51a24.51,24.51,0,0,1-.53-3.38q0-22,0-44C523.91,663.28,524.12,662.17,524.3,660.42Z"></path>
            <path class="cls-1" d="M678.6,555.9c3.81-1.07,6.09-3.34,6.85-7.17,1.18-5.94-1.32-10.33-7.14-12-2.19-.63-4.48-.91-6.68-1.34a10.36,10.36,0,0,1-.15-7.74c1.12-.24,2.22-.43,3.31-.69a34.83,34.83,0,0,0,5.57-1.47,9.22,9.22,0,0,0,4.27-13.12c-2.66-4.62-8.79-4.94-12.09-.51a35.37,35.37,0,0,0-2.5,4.68c-4.18.55-8.3,1-12.55-.37-.17-5.68,2.08-10,6.64-12.82,10-6.2,21.26-4.34,29.38,1.66,8.68,6.41,6.31,18.11-.2,23-.77.57-1.66,1-2.46,1.51-.62.41-1.2.88-2.1,1.55l4,2.72c7.82,5.35,10.48,19.34-1,26.25a28.56,28.56,0,0,1-25.63,2.2c-6.69-2.5-9.5-7.19-9.44-15.19,4-1.28,8.17-.61,12.56-.3C670.87,551.1,672.35,555.73,678.6,555.9Z"></path>
            <path class="cls-1" d="M902,686.49c5.88,3.15,7.35,8.39,8,14.17.39,3.6,1,7.17,1.62,11a23.46,23.46,0,0,1-10.31.07c-1.71-3.93-1.84-8-2.26-12-.47-4.44-.47-4.44-3.37-7.86-4-.82-8.25-.59-12.74-.14a15.13,15.13,0,0,0-.81,3.23c-.11,3.66-.05,7.33-.05,11v5.21c-3.66,1.63-7,1.12-10.47.57a11.49,11.49,0,0,1-.59-2.37q0-23.18,0-46.35a9.17,9.17,0,0,1,.64-2.25,10.62,10.62,0,0,1,2.29-.54c7,0,13.91-.12,20.85.11a27.32,27.32,0,0,1,7.9,1.53,11.48,11.48,0,0,1,8.24,10.2c.54,5.25-1.34,9.46-5.91,12.31-.49.3-1.06.48-1.55.78A14.76,14.76,0,0,0,902,686.49Zm-19.47-4c4.07,0,7.55.25,11-.07s5.78-3.19,5.91-6.76a6.36,6.36,0,0,0-5.83-6.75,33.92,33.92,0,0,0-11.24.26C882,673.55,881.69,677.67,882.53,682.47Z"></path>
            <path class="cls-1" d="M516.22,159.74c-.86-7.27-.6-53.78.31-58.39,4.33-.56,12.91.28,20.3,2.06.58,5.39.2,11,.26,16.49s0,10.81,0,16.21c0,5.6,0,11.2,0,16.8,0,5.37.18,10.76-.16,16-3,1.54-5.7.75-8.34.89-2.48.14-5,0-7.84,0-.29-2.79-.55-5.21-.82-7.82Z"></path>
            <path class="cls-1" d="M711.91,660.63a27.47,27.47,0,0,1,3.26-.42c6.18,0,12.36-.16,18.53.07a34,34,0,0,1,9.08,1.54c4.74,1.54,7.86,4.83,8.38,10,.54,5.48-1.19,9.89-6.19,12.68-.81.46-1.6.94-2.6,1.53a7.57,7.57,0,0,0,1.28,1.39c3.83,2.25,5.47,5.84,6.14,10,.73,4.54,1.38,9.11,2.06,13.67-3.13,1.35-3.69,1.39-10.2.63a13.56,13.56,0,0,1-1.17-2.94c-.5-3.24-.82-6.5-1.22-9.76-.32-2.71-.71-5.39-3.55-7.28a35.11,35.11,0,0,0-13,.26c-1.25,6.57.18,13.16-.9,19.7a27.33,27.33,0,0,1-9.75.14,12.66,12.66,0,0,1-.65-2.75q0-22.89,0-45.77A19.57,19.57,0,0,1,711.91,660.63ZM722.29,682a30.52,30.52,0,0,0,12.2.31c3.13-.51,5.13-3.47,5.14-6.81a6,6,0,0,0-4.87-6.33,25.16,25.16,0,0,0-12.06.22,34.78,34.78,0,0,0-.44,3.56C722.21,675.78,722.27,678.65,722.29,682Z"></path>
            <path class="cls-1" d="M696.48,104.91c0,18.21,0,36.06,0,53.88l-4.56,2.26c-.17,2.7-.33,5.34-.49,7.89a37.6,37.6,0,0,1-15.73.13,37.29,37.29,0,0,1-.45-3.8c-.61-23-.28-54,.59-58.81C679,105.46,691.23,104.46,696.48,104.91Z"></path>
            <path class="cls-1" d="M221.76,548.26a7.69,7.69,0,0,0,5.66,4.25c3.23-.73,5.13-3.11,5.74-6.32,1.15-6.06,2-12.17,3-18.28a9.68,9.68,0,0,0-.26-2.6c-2.07-2.26-4.13-1.53-5.91-.28a14.53,14.53,0,0,0-4.53,4.28c-1,1.73-.92,4-1.34,6.22-.38.28-.79.82-1.29.92a20.22,20.22,0,0,0-8.72,4.34c-3.08,2.53-6.74,2.76-10.45,2.17a4.84,4.84,0,0,1-4.42-4.78c4.46-2.87,10.53-2.79,14.24-7.81-.82-1.17-1.62-2.34-2.53-3.63l-5.77,1.5C200,526.1,200,526.1,200,522c3.12-.73,6.26-1.48,9.41-2.19,6.07-1.36,9.75-5.11,11.35-11.08,1.14-4.29,2.45-8.54,3.7-12.8.51-1.74,1.24-3.27,3.74-3.43,5.59,3.25,4.06,8.59,3.25,14.12,1.14-.06,2.14.17,2.79-.2,1.31-.77,2.39-1.93,3.66-2.8s2.56-1.54,4-2.39l2.72,2.26c-.11.8,0,1.55-.31,1.88a18.17,18.17,0,0,1-3.78,3.41,64.57,64.57,0,0,1-7.34,3.44c-4.35,1.82-8.24,4.24-11.05,8.12-1.33,1.83-3.59,3-4.2,5.6l1.62,1.5c4.11-.73,6.75-3.87,10.18-5.55s6.71-3.75,10.67-6a5.07,5.07,0,0,1,4.87,1.59A16.66,16.66,0,0,1,243.62,529c-4,7.7-5.58,16-6.72,24.43-.38,2.83-.53,5.76-1.88,8.12-2.16,1.2-3.67.46-5-.82a38.69,38.69,0,0,1-2.62-3.08c-1.48-1.81-3-3.55-5.39-4.06-1.88.17-2.68,1.42-3.2,3a52,52,0,0,1-1.91,5.43c-.72,1.52-2,2.31-4.18,1.35-.23-1.45-.49-3.09-.8-5l-4.22-2.83a14.94,14.94,0,0,1,1.61-2A10.83,10.83,0,0,1,211,552.5c-.65-1.92-1.08-3.16-1.42-4.15,1.09-2.82,7.63-4.65,12.86-3.78Z"></path>
            <path class="cls-1" d="M567.87,105.67c.08,16.43.14,32.54,0,49l-6.72.74c-.25,2.4-.48,4.62-.74,7.07-2.78,1.57-6,0-9.25,1.21-.27,1.76-.56,3.58-.9,5.77l-3.54.2a13.16,13.16,0,0,1-.65-2.82q-.06-29.76,0-59.51a19.41,19.41,0,0,1,.32-2.65C551.3,103.86,559.43,104.22,567.87,105.67Z"></path>
            <path class="cls-1" d="M644.69,107.27a70.44,70.44,0,0,1,21-.3c.88,4.66.95,56.91,0,62.48h-4.45c-.21-1.92-.4-3.61-.61-5.42-2.66-1.65-5.71-.18-8.57-1.14-1.87-1.95.07-4.84-1.66-7.37l-5.15-.73c-.17-.22-.3-.36-.41-.52s-.27-.33-.27-.49q-.11-21.1-.16-42.22C644.44,110.23,644.59,108.89,644.69,107.27Z"></path>
            <path class="cls-1" d="M762.09,696.29a22.23,22.23,0,0,1,9.94-.14c.45,1.37.82,2.64,1.29,3.88a7.8,7.8,0,0,0,5.91,5,12.53,12.53,0,0,0,9.49-1.52c4.13-2.52,4.15-7.21,0-9.86a20.87,20.87,0,0,0-4.74-2.06c-2-.67-4.12-1.06-6.14-1.7a55.12,55.12,0,0,1-6.52-2.37c-9.85-4.57-11.5-16.29-2.93-23.08,7.32-5.8,15.81-7,24.59-3.55,5.49,2.12,7.76,5.79,8.69,12.78-3,1.89-6.13.88-9.42.72a22.78,22.78,0,0,1-1.34-2.65c-2-5.67-10.06-5.69-13.87-2.74a5.89,5.89,0,0,0,.66,10.11,19.87,19.87,0,0,0,4.27,1.72c2.21.67,4.5,1.09,6.7,1.79a48.37,48.37,0,0,1,7,2.6c9.4,4.64,10.48,16.21,2.17,22.73a20,20,0,0,1-11.22,4.24,72.34,72.34,0,0,1-10.41,0c-8.72-.71-14-6-14.64-14.28A8.08,8.08,0,0,1,762.09,696.29Z"></path>
            <path class="cls-1" d="M860.75,712h-9.63c-1.43-3.39-2.84-6.72-4.19-9.94-4.09-1.12-14.35-1.3-20.61-.31l-4.17,10.08c-1.52.14-3,.37-4.51.4s-3-.16-4.76-.26a9.73,9.73,0,0,1,0-2.88q8.19-22.86,16.5-45.68a26.63,26.63,0,0,1,1.33-2.69,36.28,36.28,0,0,1,12.6-.06,12.53,12.53,0,0,1,1.23,2.06q8.28,23.74,16.49,47.51C861.16,710.51,860.94,710.93,860.75,712Zm-23.33-40.56c-2.74,2.4-2.76,4.88-3.59,7-.93,2.32-1.64,4.74-2.34,7.15-.62,2.12-2.28,4.08-1.11,7a105,105,0,0,0,10.8.07,9,9,0,0,0,2.59-1C841.71,684.85,839.86,678.43,837.42,671.41Z"></path>
            <path class="cls-1" d="M674.7,669.06v11.23a24.83,24.83,0,0,0,4,.75c4,.09,8.1,0,12.16.05,1.52,0,3,.15,4.52.23,1.58,2.54,1.14,4.94.52,7.7a22,22,0,0,1-3.34.56c-4.25.06-8.49,0-12.74,0-1.5,0-3,.24-4.77.39a35.61,35.61,0,0,0-.18,12.94,26.26,26.26,0,0,0,4,.63c5,.07,10,0,15.06,0,1.49,0,3,.29,4.42.44a13.61,13.61,0,0,1,.18,7.4,10.53,10.53,0,0,1-2.64.7c-9.84.06-19.69.05-29.53,0a13.65,13.65,0,0,1-2.52-.51c-1-4.24-.35-8.47-.46-12.65s0-8.5,0-12.74-.11-8.5,0-12.74-.64-8.45.51-12.51c4.12-1,26.26-1.26,33-.4,1.29,3,1.29,3,.58,7.41a25.23,25.23,0,0,1-3.71.58c-4.64.07-9.27,0-13.9,0C678.31,668.68,676.81,668.89,674.7,669.06Z"></path>
            <path class="cls-1" d="M423.26,660.52a43.43,43.43,0,0,1,12.72.17c5.87,15.78,11.23,31.85,16.9,47.79a20.16,20.16,0,0,1,.53,3c-3.43,1.3-6.59.72-10,.47L439.2,702c-4.34-1.1-15-1.21-20.62-.21l-4.05,9.81c-3.21,1.06-6.23.62-9.54.41a6.91,6.91,0,0,1-.08-2.32q8.46-23.37,17-46.71A21.78,21.78,0,0,1,423.26,660.52Zm-1.48,31.36c5.47,1.14,9.55,1.08,13.57,0-.11-3.65-4.06-16.57-6.11-20-.33.17-.87.26-1,.52C425.86,678.66,423.72,685,421.78,691.88Z"></path>
            <path class="cls-1" d="M301.8,686.69c.28-5.63.6-11.22,3.15-16.39a15.51,15.51,0,0,1,22.58-6.46,15.88,15.88,0,0,1,6.63,8.52c3.33,9.6,3.75,19.41.2,28.95-3.74,10.09-10.64,12.06-19.24,10.83-4.71-.67-8-3.79-10-8a33.18,33.18,0,0,1-2.52-8.24A91,91,0,0,1,301.8,686.69ZM319.19,706c2.41-.31,3.74-2,4.45-4a25.28,25.28,0,0,0,1.62-6.71,147.78,147.78,0,0,0,0-15.61,26.08,26.08,0,0,0-2-7.78c-.8-2-2.35-3.58-4.93-3.2-3.75,2.63-5,4.42-5.31,9.56-.3,6.15-.21,12.34,0,18.5a18.31,18.31,0,0,0,1.77,6A4.85,4.85,0,0,0,319.19,706Z"></path>
            <path class="cls-1" d="M622.23,562.82c0-8.43,0-16.3,0-24.18,0-7.6,0-15.21,0-23.48-5.5,1.7-9,5.42-14.11,6.32-1.24-3.81-.79-7.33-.43-11l15.81-9.25a49.44,49.44,0,0,1,11.93.15,24.37,24.37,0,0,1,.53,3.49q0,27.17,0,54.32a33.09,33.09,0,0,1-.39,3.55C631.25,563.93,627.17,563.71,622.23,562.82Z"></path>
            <path class="cls-1" d="M634.72,712H623.79a22.55,22.55,0,0,1-1.92-3.35q-8.16-22.24-16.23-44.53c-.32-.88-.51-1.8-.85-3,3.73-1.57,7.23-1,11-.51,2.82,6.38,4.39,13.15,6.77,19.62s3.84,13.18,7,20.07c2.81-4.58,3.61-9.13,5.13-13.39s2.84-8.8,4.35-13.17,2.5-8.87,4.71-13a21.37,21.37,0,0,1,9.56-.15,11.6,11.6,0,0,1-.27,2.88q-8.41,23.07-16.93,46.12A19.5,19.5,0,0,1,634.72,712Z"></path>
            <path class="cls-1" d="M448.52,526.07c-1.9-3-6.41-4-7.14-8.73,4.75.82,9.13,1.3,13.47-.71,5.77-7.48,8.47-16.66,12.88-25.13,2.48.07,3.66,1.8,4.73,3.33a7,7,0,0,1-.56,5.79c-1.91,3.78-3.68,7.64-5.45,11.49a6.17,6.17,0,0,0-.13,2c4.18.14,8.3-2.3,12.3-.05a1.93,1.93,0,0,1-.74,3,75.08,75.08,0,0,1-8.26,4,48.66,48.66,0,0,1-6.11,1.64c-4.45,3.21-6.66,7.88-9,12.28,3.6,4.41,11.47,11,15.45,12.56a33.54,33.54,0,0,0,7.26,1.64c1.87.27,3.79.17,6.42.26-.79,1.09-1.06,1.89-1.58,2.1-2.9,1.17-5.67,2.48-7.15,5.53l-5.51.86a14.69,14.69,0,0,1-8.35-8.15,31.78,31.78,0,0,0-8.19-11.44,18,18,0,0,0-2.55,2.24c-7.31,9.5-16.68,16.49-27,22.37-2.67,1.52-5.36,2.93-9,3.09.76-2.28,2.77-2.76,4-3.91,1.43-1.29,3-2.4,4.51-3.62s3.28-2.69,4.85-4.12,2.79-2.66,4.11-4.07,2.6-2.86,3.8-4.36,2.31-3.1,3.42-4.67c1.23-1.73,2.39-3.51,3.62-5.24,1.12-1.57,2.33-3.08,3.43-4.66S448.44,528.35,448.52,526.07Z"></path>
            <path class="cls-1" d="M372.29,529.76c-4.94,2.57-6,7.15-6.08,12.11,0,2.07,1.14,4.16-.39,6.57l-2.05.84a5.37,5.37,0,0,1-3.66-5.06,17.19,17.19,0,0,1,.34-5.17c.93-3.73,2.15-7.39,3.36-11.46l3.73.48c1.8-2.3,3.67-5,5.86-7.37s4.7-4.48,7.25-6.87l-3.83-1.08,3.5-4.55v-5c.88-2.52,3.44-3.77,4.12-6.74-2.52.33-3.81,1.81-5.16,3-2.43,2.21-4.76,4.53-7.12,6.81-4.3,4.13-8.33,5.21-15.21,3.85a8.93,8.93,0,0,1,1.12-1.82A18.3,18.3,0,0,1,360,507.1c4.77-3.6,9.43-7.38,14.33-10.79s10-6.47,15.07-9.68h4.21l1.68,2.34c-1.54,5.81-7,8.81-9.39,14.26l2.35,4c-.79.95-1.55,2-2.46,2.91a37.42,37.42,0,0,1-3,2.48c3.08.92,6-1.11,8.25,1.05a3.22,3.22,0,0,1,.41,4.23c-4.23,6.56-5.3,14-6.24,21.47-.51,4-1.1,8-1.62,12.05-.25,1.94-.38,3.91-3,4.73a18.62,18.62,0,0,1-2.05-1.49,23.19,23.19,0,0,1-1.86-2.18l-4.71,1v-9.76l-3.47-2.41,3.7-11.72.57-1.49-.59,0Zm5.28.9a27.55,27.55,0,0,0,2.54,1.57,5.56,5.56,0,0,0,1.59.24c3.38-9.23,3.71-11.36,2.32-15.66-3.68,1.05-6.08,3.6-8.15,6.35C376.44,525.66,376.94,527.9,377.57,530.66Zm2,20c.6-4,1.12-7.15,1.54-10.34a10,10,0,0,0-.21-2.26c-4.41,1.66-5.16,3.92-3.91,11.63Z"></path>
            <path class="cls-1" d="M525.12,526.05c1.72-2.82,4.74-3.77,7.43-5.16,2.39-1.23,4.85-2.29,7.34-3.46v-3.3l-5.31-2.86c-3.51.93-4.08,5.51-8.3,5.67.71-3.36,4.73-5.12,3.58-9l-3.94-.89-4.43-17.71c3.51,1.61,4.44,4.46,6,6.71s2.94,4.91,4.36,7.32c1.32.32,1.91-.52,2.33-1.35.78-1.53,1.42-3.14,2.12-4.72-.68-1.57-1.27-3-1.91-4.46a40.5,40.5,0,0,0,13.15-17.61,11.47,11.47,0,0,1,1.66-.26,20.83,20.83,0,0,1,2.22.3l2.31,4.26c-1,3.72-3.85,4.86-6.14,6.58s-5,2.87-6.83,5c.81,1.53,1.7,1,2.49.53a84.56,84.56,0,0,1,19.8-8,26.83,26.83,0,0,1,6.27-.76,7.57,7.57,0,0,1,2.6.91c.66,2.92-1.08,4.64-2.67,6.2A87,87,0,0,0,558.11,504c-1.78,2.69-3.29,5.57-5.25,8.92a21.07,21.07,0,0,0,3.36,0c3.22-.62,6.4-1.45,9.63-2,2.29-.38,4.66-.42,6.1,2.29-.3,2.29-2,3.61-3.66,4.86a32.83,32.83,0,0,1-12.2,5.1c-4.32,1-8.65,1.93-13,2.88-.92.21-1.85.38-2.79.57-.62-1.59.65-1.76,1.34-2,6.23-2.6,12.49-5.12,18.74-7.68,1-.41,2-.93,3.24-1.54-2.66-1.13-2.69-1.22-9.4.78-3.11.93-6.08,2.31-10,3.82-2.65-.66-5.79.83-9,2.15s-6.83,2.53-10.25,3.78Zm40.3-40c-2.13-1.37-4,0-5.89.64a53.18,53.18,0,0,0-5.79,2.54c-1.76.91-4.18.82-5.08,2.76,2,3.59,3.84,6.81,5.68,10.06C560.36,495.35,564.35,489.61,565.42,486Zm-26.34,19.89c4.92,0,8.35-1.74,10.36-5.9-.64-2.46-1.21-4.7-3.15-6.2-.35-.26-1-.11-1.83-.17.31,1.48.57,2.7.83,4-1.26,1.12-2.43,2.1-3.53,3.16A7.58,7.58,0,0,0,539.08,505.91Zm4.59,8.59c3.64-3.06,5.24-5.08,6.4-8.29l-7.8,3.11C541.26,511.53,542,512.94,543.67,514.5Z"></path>
            <path class="cls-1" d="M257.56,699.41c2.85-1.31,5.89-.69,9.23-.5.67,1.3,1.3,2.66,2,4a5.69,5.69,0,0,0,5.76,3.1,5.93,5.93,0,0,0,4.9-3.58c2.31-4.62.4-9.52-4.5-11.23a50.59,50.59,0,0,0-5.48-1.31c-.94-2.7-1-2.7-.35-5.93,1.83-.49,3.88-.91,5.84-1.59,4.08-1.4,6.06-4.64,5.32-8.44a6.19,6.19,0,0,0-4.75-5.22,5.6,5.6,0,0,0-5.94,2.7c-.75,1.09-1.38,2.27-2.13,3.5-3.26.3-6.44,1-9.81-.58.11-5,2.36-8.64,6.65-10.71,7.61-3.68,15.11-2.81,21.95,1.85,6.06,4.14,6.13,13.21.49,18.12-.58.5-1.3.84-1.91,1.31s-1.09,1-1.82,1.64c1.31,1,2.44,1.7,3.44,2.56,6.85,5.93,6.09,16-1.69,20.56a19.1,19.1,0,0,1-7,2.48,45.85,45.85,0,0,1-9.8.09C262,711.68,255.68,705.64,257.56,699.41Z"></path>
            <path class="cls-1" d="M937.46,712.08c-.05-4.56-.21-8.2-.1-11.84a17.62,17.62,0,0,0-2.07-8.87c-4.46-8.56-8.73-17.22-13-25.85-.68-1.35-1.24-2.76-1.85-4.13,3.62-1.51,6.33-1.62,12.17-.52,4,6.76,6.27,14.61,10.63,22.1a17.53,17.53,0,0,0,1.92-2.52c2.47-5.24,4.85-10.52,7.3-15.76.64-1.38,1.43-2.69,2.2-4.12,3.33-.38,6.49-1,10,.46-.54,1.43-.91,2.69-1.48,3.86-4.34,8.84-8.64,17.7-13.11,26.47a16.57,16.57,0,0,0-2,8.31c.14,3.84,0,7.69,0,11.5C944.52,713,941.35,712,937.46,712.08Z"></path>
            <path class="cls-1" d="M577.37,105.73a49.06,49.06,0,0,1,14.3.77c1.05,5.24,1.21,42.19.21,48.19-2.3.77-4.8.37-7.25.42-2.28,0-4.56-.06-7.15-.1a26,26,0,0,1-.55-3.53q0-21.09,0-42.17A31.77,31.77,0,0,1,577.37,105.73Z"></path>
            <path class="cls-1" d="M322,621.79c3-4.72,3.65-10.11,5.39-15.11s2.49-10,4.77-15l4,.23a14.85,14.85,0,0,1,1.12,2.31c2.24,8.18,4.43,16.38,6.67,24.57a26,26,0,0,0,1.16,3c2.25-.19,2.15-1.79,2.45-3,1.77-6.91,3.45-13.85,5.23-20.75.52-2,1.26-4,1.94-6.11h4c.16,1,.46,1.57.32,2.06-3.37,12.25-6.79,24.49-10.14,36.48-3.15.83-3.15.83-6.34,0-1.29-4.56-2.54-9.39-4-14.14-1.41-4.46-1.92-9.25-4.43-14.44-3.12,5.33-3.46,10.37-4.94,15s-2.73,9.2-4.19,14.13l-5.14.26c-2.26-3.26-2.45-6.82-3.51-10.08s-1.91-6.27-2.84-9.42c-1-3.33-2-6.65-2.86-10-.81-3.11-2.29-6.1-2.18-9.81l4.33-.26C316.43,601.63,317.94,612,322,621.79Z"></path>
            <path class="cls-1" d="M789.12,537.17c4.34-1,25.32-1.12,31.43-.26,1.61,3.79.62,7.86.73,11.82.11,3.79.44,7.64-.4,11.38-3.23.82-6.25,1.12-8.89.17-4-1.44-8-.87-12.16-.9l-2.78,3.47h-7.39c-.39-.72-.89-1.21-.9-1.7-.11-7.12-.19-14.24-.2-21.36A12.06,12.06,0,0,1,789.12,537.17Zm9.9,7.69c-.76,2.47-1.06,4.31.54,6.16a28.52,28.52,0,0,0,10.69-.22c.55-2.18,1.11-4-.39-6A28.7,28.7,0,0,0,799,544.86Z"></path>
            <path class="cls-1" d="M635.42,154.89H620.6a7.14,7.14,0,0,1-.68-2.1q0-22,.11-44a10.51,10.51,0,0,1,.41-1.95c4.68-.83,9.37-.49,14.36-.11a38.35,38.35,0,0,1,.53,4.21C635.55,125.41,635.45,139.84,635.42,154.89Z"></path>
            <path class="cls-1" d="M230.64,662.66a41.18,41.18,0,0,1,9.47.2,39.26,39.26,0,0,1,.55,4.18c.56,22,.26,39.85-.76,44.64-3,.93-6.19.69-9.73.09a42.23,42.23,0,0,1-.5-4.54c0-9.24,0-18.49,0-27.73,0-1.69-.14-3.39-.24-5.56a15.41,15.41,0,0,0-2.88.94c-2.46,1.41-4.77,3.14-7.63,3.73-1.22-3.86-1.22-3.86-.41-8.78Z"></path>
            <path class="cls-1" d="M325,564.76a21.25,21.25,0,0,1-3.62,1.58c-1.69.34-3.46.28-5.15.62-5.94,1.21-10.64-.58-13.77-5.73-2.1-3.46-3.81-7.15-5.76-10.7-.72-1.3-1.63-2.5-2.76-4.19-1.89,2.31-3.36,4.3-5,6.1a46.15,46.15,0,0,1-5.06,4.73,69.47,69.47,0,0,1-6.21,4.25,49.91,49.91,0,0,1-6,3.42,12.7,12.7,0,0,1-8,1.15c5.63-2.9,10.51-5.49,14.09-10,4.29-5.41,9.38-10.24,11.89-16.87-.66-4.16-5.19-6-6.33-10.39,4.16,0,5.69,3.52,8.55,5,3.14-.85,2.44-4.57,4.78-6.45,3.33.85,5,3.47,6.3,6.14.62,3.45-1.49,5.34-3.4,7.55,1.39,3.68,3.87,6.63,6.32,9.5a57,57,0,0,0,8.57,8.58C317.3,561.29,320.93,562.64,325,564.76Z"></path>
            <path class="cls-1" d="M852.51,630.63a16,16,0,0,1-2.83.69,23.22,23.22,0,0,1-3.22-.31l-19.58-30.23c-2.06.31-1.67,1.69-1.68,2.72,0,7.52,0,15,0,22.55,0,1.34,0,2.68,0,4.37l-3.82.89a8,8,0,0,1-1-2.38q-.07-17.34,0-34.69a6.89,6.89,0,0,1,.43-1.66c1.66-1.64,3.48-1.3,5.94-.36,3.08,4.75,6.42,9.91,9.78,15.06s6.26,10.49,9.94,15.26c1.56-.52,1.38-1.57,1.38-2.5-.06-7.91-.15-15.81-.19-23.71,0-1.31.22-2.63.37-4.36h3.65c.35.83.77,1.35.77,1.88C852.52,606,852.51,618.07,852.51,630.63Z"></path>
            <path class="cls-1" d="M681.66,601v15c0,4.8,0,9.59,0,14.76l-4.2.31a14.2,14.2,0,0,1-.59-2.54q0-13.34,0-26.66c0-3.07.08-6.13.12-8.86,1.93-2.1,3.78-1.64,6-.94a36.52,36.52,0,0,1,2.32,3q7.82,12.19,15.57,24.42c.7,1.1,1.26,2.37,3.25,2.52.89-5.06.16-10,.37-14.93s-.35-9.63.41-14.84l3.32-.37c.46.73.8,1,.83,1.38a36,36,0,0,1,.27,4q0,14.77,0,29.55c0,1.15-.11,2.29-.16,3.31-1.74,1.83-3.61,1.42-6,.74-7-9.63-13-20.32-20-30.36Z"></path>
            <path class="cls-1" d="M163.6,590.85c7.16.21,12.74,3.91,15.77,10.89a23.56,23.56,0,0,1-1,21.23c-3.57,6.68-9.62,9.36-16.86,9.13-7.05-.23-12.67-3.29-15.75-10a23.45,23.45,0,0,1,.82-22.25C150.15,593.6,155.92,590.91,163.6,590.85Zm12.59,20.72A52,52,0,0,0,175.1,605c-1.55-5.26-5-8.63-10.58-9.38A12.89,12.89,0,0,0,151,602.51a19.15,19.15,0,0,0-.52,17.3,12.68,12.68,0,0,0,12.9,8,13,13,0,0,0,11.9-10.15C175.72,615.77,175.85,613.82,176.19,611.57Z"></path>
            <path class="cls-1" d="M594.27,711.93h-9.74a14.23,14.23,0,0,1-.68-2.88q0-22.84,0-45.68a13.84,13.84,0,0,1,.45-2.36c3.2-1.41,6.36-.86,9.79-.38a13.2,13.2,0,0,1,.65,2.8q.06,22.83,0,45.68A19.65,19.65,0,0,1,594.27,711.93Z"></path>
            <path class="cls-1" d="M665.72,610.9c-.14,3.64-.34,7.06-1.78,10.34-3.6,8.22-11,11.62-19.25,10.74-8.5-.92-14.09-6.13-15.88-14.5a26.22,26.22,0,0,1,.5-13.16c2.74-9.2,10.53-14.3,20.39-13.35,8.32.79,14.86,7.67,15.81,16.63C665.63,608.75,665.66,609.91,665.72,610.9Zm-4.71.46a63.38,63.38,0,0,0-1.8-7.79c-1.72-4.77-5.39-7.4-10.39-7.93a12.66,12.66,0,0,0-12.48,5.58c-4,5.71-4,15-.14,20.74a13,13,0,0,0,22.43-1.06A22.75,22.75,0,0,0,661,611.36Z"></path>
            <path class="cls-1" d="M591.74,611.85a69.89,69.89,0,0,1-1.62,7.78c-4.19,13.06-18.53,14.85-27,10.19-4.71-2.59-7.35-6.8-8.58-11.84a24.72,24.72,0,0,1,.78-14.8c3-8.11,9.54-12.47,18.33-12.28,8.08.18,14.51,5.18,16.86,13.37A61.25,61.25,0,0,1,591.74,611.85Zm-5.12.09c-.46-2.51-.7-4.83-1.33-7a12,12,0,0,0-10.7-9.24c-5.71-.72-10.37,1.42-13.18,6.48a18.71,18.71,0,0,0,.18,19.34,12,12,0,0,0,12.16,6.27,12.26,12.26,0,0,0,11-8.1C585.78,617.18,586.06,614.44,586.62,611.94Z"></path>
            <path class="cls-1" d="M268.2,593.07a9.91,9.91,0,0,1,1.17-1.11,7.9,7.9,0,0,1,1.27-.49l1.9,1c1.38,5.16-.27,10.46,1,15.31,1.94,2,4.18,1.27,6.22,1.36s4.25,0,6.37,0,4.17-.14,6.38-.22c2-5.54.1-11,1.4-16.64l3.67-.65a12,12,0,0,1,.93,3q.09,17.07,0,34.15a5.49,5.49,0,0,1-.44,1.54c-1.45,1.31-2.79,1.31-4.48-.23-.12-5.05-.24-10.38-.36-15.53-4.19-1.51-14-1.67-19.54-.36-1.47,5.06,0,10.51-.77,15.62-1.22,1.68-2.56,1.84-4.09.84-.22-.33-.6-.65-.6-1C268.2,617.55,268.2,605.42,268.2,593.07Z"></path>
            <path class="cls-1" d="M752.05,628.43c-7.2,5-17.68,5-24.36,0a13.51,13.51,0,0,1-2.54-2.35c-5.57-7-6.25-14.94-2.94-22.92,3.24-7.78,9.52-11.94,18.08-12.21,3.84-.12,7.74-.16,11.28,2.61v3.68c-.9,0-1.53.26-2,.06a22.68,22.68,0,0,0-9.59-1.77,14.14,14.14,0,0,0-9.85,4.24c-5.86,5.75-6.3,17.18-.89,23.36,4.23,4.84,10.33,5.91,17.61,3,1.78-3.13,1-6.53.67-9.7-2.13-2.44-5.1-.53-7.63-2.23,0-.74-.11-1.76-.19-2.93,4.27-1.19,8.19-.64,12-.36C752.88,615.42,753,623.26,752.05,628.43Z"></path>
            <path class="cls-1" d="M953.14,629.61H950.5c-.91-4.12-1.29-22.34-.72-33.67a20.81,20.81,0,0,1,.65-3.18c8.06-1.77,13.11-1.09,20.57,2.85.67,1.19,1.54,2.68,2.37,4.19a7.66,7.66,0,0,1-.93,9.15c-1.57,1.9-3.46,3.52-5.2,5.27.14,3.56,3.39,5,4.9,7.63s3.09,4.79,4.68,7.23c-1.42,1.65-2.84,1.11-4.68.43l-10.77-15.07a15.58,15.58,0,0,0-7.09,0C952.63,619.46,954.33,624.57,953.14,629.61ZM969.21,601l-4.37-4c-3.84.11-7.28-.71-10.52.61-1.15,5.15-1.06,8.58.35,12.7,5.21.46,10.61,1.51,14.54-4.25Z"></path>
            <path class="cls-1" d="M517.6,630.64c-1.4.83-2.79,1.18-4.07-.22-.06-.42-.26-.84-.15-1.15q6.47-17.29,13-34.56a26.39,26.39,0,0,1,1.53-2.86l3.74-.27c2.1,1.56,12.42,27.83,15.44,38.39-.91,1.81-2.35,1.5-4.46.71-1.29-2.9-2.75-6.19-4.35-9.82-5.09-1.05-10.26.11-15.1-.53C519.42,623.07,520.17,627.71,517.6,630.64Zm19-15.29c-1.6-4.52-3-8.45-4.39-12.38a22.28,22.28,0,0,0-1.07-2.63c-.14-.3-.59-.44-.89-.66-2.16,2.1-5.06,9.64-6,16.1A24.54,24.54,0,0,0,536.6,615.35Z"></path>
            <path class="cls-1" d="M539.74,543.43c-3.53.41-5.84,2.23-8.29,3.68a14.63,14.63,0,0,1-7.63,2.41c-2.11,0-3.71-.82-4.09-3.59,4.66-.09,8.41-2.5,12.44-4.22s8-2.83,12-4.18c2.73-.92,5.48-1.78,8.83-2.87,2.29.29,5,1,6.67,4.09-1.9,2.74-4.89,3.08-7.63,3.43-2.58.33-5.26,0-8.29-.11-.41,2.09.45,4.3.63,6.53.21,2.5.49,5,.59,7.5.09,2.31,0,4.64,0,6.95s-.11,4.61-.17,7.05l-3.42,2.19c-8-3.47-15.35-7.72-22.79-11.79-.44-.25-.68-.87-1.56-2,3.94,1.11,7.1,2.26,10.36,2.84s6.75,1.57,10.28.94c2-2.9.76-6.14,1.36-9.1S540.6,547.19,539.74,543.43Z"></path>
            <path class="cls-1" d="M601.56,106.48h8.5a10.72,10.72,0,0,1,.71,2.63q.06,21.95,0,43.88a8.22,8.22,0,0,1-.29,1.39c-2.59,1.3-5.38.68-8.43.47-1-5.44-.39-10.8-.51-16.11s0-10.39,0-15.59C601.52,117.79,601.54,112.44,601.56,106.48Z"></path>
            <path class="cls-1" d="M831.43,334.67q0,46.88,0,93.75a22.51,22.51,0,0,1-.45,3h-3.82a4.31,4.31,0,0,1-.63-1.18c-.11-1.15-.18-2.3-.18-3.46q0-40.26,0-80.51c0-3.75.45-7.32,2.55-10.51a11.5,11.5,0,0,1,1.49-1.56Z"></path>
            <path class="cls-1" d="M381.54,431.7c-.67-4.44-1.1-88.05-.56-95.59a6.53,6.53,0,0,1,.74-1.72,7.78,7.78,0,0,1,3.3,5.41,39.31,39.31,0,0,1,.61,6.31q0,40.27,0,80.53c0,1.51-.16,3-.26,4.81Z"></path>
            <path class="cls-1" d="M802.28,592.13l4.05-.38a24.67,24.67,0,0,1,.6,3.73c0,7.13,0,14.27,0,21.41,0,.38,0,.77,0,1.15-.83,11.92-13,18.19-23.35,12.08a10.82,10.82,0,0,1-4.23-4.63,17.67,17.67,0,0,1-1.75-7.84q-.07-11.29,0-22.57A21.53,21.53,0,0,1,778,592l3.39-.26a14.49,14.49,0,0,1,.71,3c0,6.75-.06,13.5.08,20.25a21.86,21.86,0,0,0,1.06,6.79c1.33,3.83,4.33,5.78,8.37,6,5,.32,8.63-2.23,9.88-7.07a21.61,21.61,0,0,0,.53-5.15c.06-6,0-12,0-17.94C802.07,595.92,802.19,594.21,802.28,592.13Z"></path>
            <path class="cls-1" d="M192.58,591.44l3.85.88c.11,1.77.26,3.28.27,4.8,0,5.79,0,11.58,0,17.37a31,31,0,0,0,.35,5.19,9.52,9.52,0,0,0,9.74,8.15c4.92,0,8.37-2.77,9.38-7.74a30,30,0,0,0,.44-5.76c.05-5.59,0-11.19,0-16.79,0-1.7.15-3.41.26-5.54H221a37.81,37.81,0,0,1,.5,4.19c0,6.36.1,12.73,0,19.1a30.89,30.89,0,0,1-1,7.42,11.74,11.74,0,0,1-9.09,8.77,19.78,19.78,0,0,1-9.73.06,11.67,11.67,0,0,1-9-8.85,20.77,20.77,0,0,1-.73-5.14c-.09-7.52-.08-15-.05-22.58A22.17,22.17,0,0,1,192.58,591.44Z"></path>
            <path class="cls-1" d="M374,597.16c-.55,3.83-.85,7.42.29,11.14,4.26,1.93,8.92-.12,13.32,1.51v2.82c-4.29,1.78-9-.41-13.3,1.53-1.16,4-.92,7.92-.2,12,5,1.91,10.09.06,15.28,1.32.17.94.35,1.93.5,2.71-1.88,1.57-15.09,1.62-20.54.27-1.1-4-.31-8.25-.45-12.42s-.05-8.49,0-12.74.06-8.45.1-12.62c3.36-2.07,6.71-.86,9.88-1.07s6.13,0,9.6,0c.18,1.36.34,2.53.5,3.71C383.91,597.57,378.59,594.61,374,597.16Z"></path>
            <path class="cls-1" d="M1002.65,592.35c.11,1.35.2,2.58.31,3.9a8.4,8.4,0,0,1-2,.35c-2.66-.32-5.3-.87-8-1a7.16,7.16,0,0,0-5.28,2c-2.33,2.11-2.65,4.85-.53,7.13a19.76,19.76,0,0,0,4.11,3.13c2,1.21,4.11,2.13,6.07,3.35a22.84,22.84,0,0,1,4.59,3.48c5.06,5.43,3.27,13.38-3.63,16.08a21.51,21.51,0,0,1-6.19,1.36,20.5,20.5,0,0,1-10.48-1.87c-1-1.57-1.54-2.94,0-4.58,1.69.51,3.49,1.09,5.3,1.61a13.19,13.19,0,0,0,8.53-.12c4.43-1.7,5.43-6.52,1.86-9.69a38.91,38.91,0,0,0-5.81-3.74c-2.14-1.3-4.4-2.41-6.46-3.83a9.72,9.72,0,0,1,1.18-17C990.82,590.65,996,590.17,1002.65,592.35Z"></path>
            <path class="cls-1" d="M940.53,609.88c.07.9.12,1.61.17,2.31-.64.38-1.11.89-1.62.92-2.3.15-4.61.16-6.92.23-1.71,0-3.49-.22-5.2,1.06a29.34,29.34,0,0,0,0,11.88c5,1.74,10.11,0,15.31,1.24l.46,2.71c-1.72,1.51-13.71,1.68-20.57.53a10.41,10.41,0,0,1-.61-2.53q-.06-16.79,0-33.56a16.16,16.16,0,0,1,.41-2.35c3.17-1.63,6.49-.46,9.68-.67s6.13,0,9.59,0c.21,1.3.41,2.47.63,3.76-5,2-10-.43-14.77,1.39-1.16,3.76-.8,7.51-.21,11.39C931.09,610.41,935.75,608.14,940.53,609.88Z"></path>
            <path class="cls-1" d="M914.18,593c-4.55,12.4-9.18,25-13.65,37.21-2,1.47-3.68,1.31-5.66.6-2.59-3.68-3.27-8.37-5-12.59s-3-8.35-4.44-12.54S881.77,597.26,881,593c1.35-2.13,2.79-1.56,4.7-.75,2.33,5,3.67,10.61,5.79,16,2,5.1,3.13,10.56,6,16.13,3.11-5.72,4.13-11.43,6.33-16.67s3.35-10.62,5.59-15.25C911.36,591.32,912.75,591,914.18,593Z"></path>
            <path class="cls-1" d="M399.25,629.71c.1-1.48.18-2.68.3-4.37l4.75,1.58a15.37,15.37,0,0,0,9.12.5c2.37-.68,4.19-2,4.67-4.61a5.38,5.38,0,0,0-2.28-5.58c-2-1.47-4.25-2.63-6.38-4-2.28-1.42-4.8-2.59-6.78-4.36-5.16-4.6-4.59-11.34,1.05-15.3,4.65-3.27,11.26-3.73,17.07-1.17.9,1.35,1.46,2.71-.32,4.26a40.25,40.25,0,0,0-4.25-1c-3.09-.42-6.18-.56-9,1.17-3.31,2-3.85,5.62-1,8.25a34,34,0,0,0,5.26,3.53c2.46,1.52,5.05,2.85,7.42,4.49a10,10,0,0,1,4.21,6.05A9.81,9.81,0,0,1,416.25,631,21.87,21.87,0,0,1,399.25,629.71Z"></path>
            <path class="cls-1" d="M133.08,592.9c-.06,1.24-.11,2.31-.15,3.2-.76.28-1.14.58-1.45.52a25,25,0,0,0-3.92-.91,28.64,28.64,0,0,0-6.87.37,5.6,5.6,0,0,0-4.66,4.61c-.41,2.4.93,4.11,2.75,5.36s4,2.33,6,3.54a55.58,55.58,0,0,1,6.3,4.07A9.69,9.69,0,0,1,134.58,624c-1,4-3.76,6.2-7.5,7.25a22.25,22.25,0,0,1-16-1.42c-.13-1.3-.25-2.52-.38-3.83.94-.15,1.54-.43,2-.29,1.85.53,3.63,1.3,5.49,1.77a12.13,12.13,0,0,0,8-.5c3.86-1.66,4.88-6,2-9a22,22,0,0,0-4.63-3.4c-1.65-1-3.51-1.65-5.12-2.7a25.2,25.2,0,0,1-5-3.92c-3.9-4.24-3.34-10.1,1.12-13.78S126.69,589.72,133.08,592.9Z"></path>
            <path class="cls-1" d="M1084.53,630.89h-4.39c-1.26-2.7-.77-5.26-.67-7.69a21,21,0,0,0-2.67-11.63c-2.64-4.71-4.92-9.61-7.33-14.44-.68-1.37-1.27-2.77-1.88-4.11,1.84-1.41,1.84-1.41,4.6-1.07,3.73,5.52,5.61,12.51,10,18.73,4.37-6.43,6.38-13.42,10.75-19.24l3.16.6c.09.77.29,1.23.15,1.51-3,6-5.93,12.12-9.17,18a19.61,19.61,0,0,0-2.6,11.06C1084.67,625.12,1084.53,627.61,1084.53,630.89Z"></path>
            <path class="cls-1" d="M342.76,553a29.18,29.18,0,0,1,3.92.47c10.71,3.1,21.44,6.15,32.1,9.42a28.47,28.47,0,0,0,12,1c1.86-.23,3.73-.39,6.26-.64-.51,1.23-.6,2-1,2.39a6,6,0,0,1-2.42,1.51,22.45,22.45,0,0,0-9.69,5.83c-4.14.94-7.34-.85-10.3-3.06A77,77,0,0,0,357,560.58c-2.67-1.11-5.42-2-8.1-3.07a34.32,34.32,0,0,1-4.67-2.2C343.68,555,343.47,554.16,342.76,553Z"></path>
            <path class="cls-1" d="M607.28,629.77V597.42c-3.4-2.93-7.63.27-10.94-2.4v-2.48c2.23-1.68,4.6-.93,6.85-1s4.24,0,6.37,0c2.31,0,4.63-.05,7-.05,2.08,0,4.17,0,6.52.06.22,1.41.38,2.43.5,3.24-.64.5-.92.9-1.24.93-1.72.16-3.44.21-5.17.33-1.3.09-2.61.23-4.27.38a41.69,41.69,0,0,0-.54,4.64c0,8.3,0,16.6,0,24.91,0,1.49-.2,3-.3,4.28C610.19,631.65,608.86,631.57,607.28,629.77Z"></path>
            <path class="cls-1" d="M446,596.36c-1.22,4.23-.61,7.89-.7,11.5-.1,3.85,0,7.7,0,11.54v10.68c-2.51,1.08-2.51,1.08-4.89,0,0-5.34,0-10.89,0-16.43s.11-11.1-.09-16.5c-3.57-2.18-7.35.08-10.77-1.89-.05-.91-.11-1.95-.15-2.8.63-.41,1-.79,1.27-.79q12.38,0,24.75,0c.17,0,.33.18.92.54v3.63Z"></path>
            <path class="cls-1" d="M258.29,592.43c-.07,1-.15,2.05-.27,3.51-2,0-3.65,0-5.33.12-1.51.07-3,.2-4.16.28-1.84,1.7-1.42,3.53-1.43,5.21,0,8.08,0,16.16,0,24.25,0,1.51-.15,3-.24,4.88l-4.08.44a26.58,26.58,0,0,1-.54-3.66c0-8.28,0-16.55,0-24.83,0-1.89.3-3.84-.63-5.8-3-1.71-6.44.16-10-1.18-.19-.89-.43-2-.65-3,.7-.47,1-.86,1.33-.86,8.25,0,16.5,0,24.75,0C257.2,591.73,257.37,591.91,258.29,592.43Z"></path>
            <path class="cls-1" d="M1033.21,595c.37-1.2.68-2.19,1-3.3h25.81a8.24,8.24,0,0,1,1,2c.11.49-.24,1.07-.43,1.78a8.25,8.25,0,0,1-2.11.68c-2.66.11-5.32.1-7.58.13-1.81,1.83-1.45,3.64-1.45,5.34,0,8.48,0,17,0,25.46,0,1.12-.12,2.24-.22,3.76l-4,.28a17.32,17.32,0,0,1-.64-3.06c0-8.48,0-17,0-25.45,0-1.89.4-3.87-.75-5.73C1040.85,594.74,1037,597.38,1033.21,595Z"></path>
            <path class="cls-1" d="M302.47,505.19l-3.7-1.44c-4.24.38-8.06,2.77-13.21,2.26,1.11-.95,1.68-1.49,2.3-2a29.37,29.37,0,0,0,3.19-2.42c2.32-2.39,3.24-5.14,1.79-8.41a30,30,0,0,1-1.18-3.77c0-.13.15-.33.23-.49,6.54-.18,9.55,1.6,12.63,7.48,3.51.28,3.51.28,8.25-1.8,1,0,2.16-.05,3.3,0,.76,0,1.51.24,2.39.38l1.1,1.68c-.32.57-.42,1.08-.69,1.2C313.46,500.33,308,502.73,302.47,505.19Z"></path>
            <path class="cls-1" d="M871.2,630.86l-3.76.26c-.47-.62-.89-.92-.89-1.23q-.15-17.91-.19-35.81a9.79,9.79,0,0,1,.78-2.46l3.28.4a9.8,9.8,0,0,1,.69,2.41C871.25,606.34,871.17,618.26,871.2,630.86Z"></path>
            <path class="cls-1" d="M368.56,675.07a7.31,7.31,0,0,1-1.94.9,13,13,0,0,1-2.47-.34,23.25,23.25,0,0,1-.53-3.41c-.06-4.24,0-8.49,0-12.73a25.34,25.34,0,0,0-.13-4.62,20.82,20.82,0,0,0-1.71-4l3.58-.59c3.14,2.23,3.27,5.44,4,8.66,3.85-1.32,7.43-2,10.61,2,1.08,4.4.66,9.33.39,14.61l-4.42.2c-.17-1.84-.37-3.32-.44-4.81-.08-1.92,0-3.86-.09-5.79a4,4,0,0,0-2.79-4c-2.14,0-3.19,1.31-3.55,3.14a30.69,30.69,0,0,0-.3,4.61C368.65,671,368.61,673.12,368.56,675.07Z"></path>
            <path class="cls-1" d="M474,631.47l-.53-3.17c.65-.38,1-.76,1.31-.73,2.13.18,4.21.36,6-1.29a8.66,8.66,0,0,0,2.67-6.22c.16-3.86.13-7.72.15-11.58,0-4.25-.06-8.5,0-12.75a27.23,27.23,0,0,1,.74-4.16l3.6.44a18.18,18.18,0,0,1,.53,3c0,7.15,0,14.3-.16,21.44a30.94,30.94,0,0,1-1,8C485.53,630.34,481.2,632.64,474,631.47Z"></path>
            <path class="cls-1" d="M1021,630.88h-4.15c-.34-.55-.7-.88-.7-1.2q-.1-17.56-.12-35.13a12.37,12.37,0,0,1,.57-2.56l3.4-.18c.41.75.74,1.07.75,1.41.12,2.29.23,4.59.24,6.89,0,8.46,0,16.91,0,25.36Z"></path>
            <path class="cls-1" d="M278.42,526.14c-1.11-2-.06-3.25,1.07-4.29,2.68-2.45,5.46-4.8,8.45-7.41l3.84,1.75a48.66,48.66,0,0,0,5.18-2.92c4.22-3,8.4-3.43,13-.2v3.72c-1.67,1.54-2.74,1.67-7.78,1.24-.08-1-.17-2.09-.25-3.18-1.23-1-2.26-.33-2.93.61-4.74,6.57-12.57,7.71-19.17,11C279.55,526.58,279.1,526.3,278.42,526.14Z"></path>
            <path class="cls-1" d="M506,630.94h-3.31a5.31,5.31,0,0,1-.81-1.62c-.52-7-.13-33.35.51-37a4.83,4.83,0,0,1,1.42-.79,6.76,6.76,0,0,1,1.92.29,8.64,8.64,0,0,1,.84,2.56c0,11.74-.07,23.48-.13,35.23A7.91,7.91,0,0,1,506,630.94Z"></path>
            <path class="cls-1" d="M194.66,544c.67.18,1.19.15,1.36.38,1.57,2.16,3.19,4.31,4.6,6.57,2.62,4.19,2.84,8.71,1.4,13.33a8.65,8.65,0,0,1-1.57,2.24c-3.57.24-5.34-2.22-7.35-3.87a11,11,0,0,1-.54-7.58C193.36,551.45,192.83,547.48,194.66,544Z"></path>
            <path class="cls-1" d="M352.45,671.78l3.56,2.66c-1.89,2.7-4.15,1.82-6.21,1.57-5-3.49-1.93-8.74-3.49-13.48l-2.89-2.42c.16-.56.14-1.07.38-1.24,1.36-1,2.83-1.72,3.47-3.57.56-1.6,2.2-1.92,4.09-1.93l1.33,3.75,3.67,2.38-3.91,3.25Z"></path>
            <path class="cls-1" d="M525,525.92c-2.86,3.8-5.68,7.64-8.61,11.39-1.78,2.28-3.87,4.19-7.35,4.74-.3-1.09-1-2.23-.76-3.08,1.38-4.59,3.41-8.84,7.67-11.56l-.12-.13c-1.17,2.55-2.33,5.11-4,8.75a17,17,0,0,0,2.72-1.5c1.66-1.61,3.22-3.31,4.84-4.95s3.2-3.35,5.72-3.53Z"></path>
            <path class="cls-1" d="M539.08,537.16c-2.8-3-7.34-.48-9.88-3.65.32-1.58,1.38-1.49,2.29-1.49a17.09,17.09,0,0,0,8.84-2c1.68-1,3.57-1.42,5.56,0C545.5,533.8,542.54,535.16,539.08,537.16Z"></path>
            <path class="cls-1" d="M514.78,501.18a18.75,18.75,0,0,1,6.92,6.39,8.16,8.16,0,0,1,.88,4.35c0,1.42-1,2.42-3,2.62C515.68,511.49,516,506.78,514.78,501.18Z"></path>
            <path class="cls-1" d="M356.51,539c-1.09,2.12-2.77,2.14-4.62,1.38-2.36-4.56-2.65-5.65-2.66-9.72C353.51,530.89,355,532.53,356.51,539Z"></path>
            <path class="cls-1" d="M353.53,546.81c3.27,2.13,4.53,3.9,3.43,7.06l-2.88.31C353.91,551.84,353.76,549.83,353.53,546.81Z"></path>
            <path class="cls-1" d="M516,527.41c.07-.38.13-.77.08-.47l-.2.34Z"></path>
            <path class="cls-1" d="M120.24,353.68c-4.77.92-9.38.52-14,.24-.86-.05-1.69-.73-2.78-1.23-.09-1.79-.25-3.49-.24-5.2q.32-58.8.69-117.61c0-2.07-.46-4.3,1.48-6.18,3.9-.92,7.85.06,11.81.78a5.46,5.46,0,0,1,4,3.05c0,1.34.14,3.25.14,5.16q-.06,55.05-.14,110.09c0,2.51,0,5-.2,7.52A21.21,21.21,0,0,1,120.24,353.68Z"></path>
            <path class="cls-1" d="M121.38,93.79a23.93,23.93,0,0,1,.45,3.42q-.7,55.32-1.47,110.64a4.51,4.51,0,0,1-.61,1.49c-3.73.87-6.63.47-12.83-1.86a49.72,49.72,0,0,1-1.5-5,21,21,0,0,1-.08-4.05q0-51,.09-102c0-2.27-.4-4.62.78-7.12,1.12,0,2.32-.3,3.29,0C113.44,90.75,117.91,90.8,121.38,93.79Z"></path>
            <path class="cls-1" d="M146.82,99.57c4.26,1.2,8.55,1.42,12.45,4.28.08,2.17.25,4.45.24,6.72q-.33,39.35-.69,78.7c-.06,7.33-.06,14.66-.15,22,0,1.69.36,3.51-1.28,5.15-3.65.76-7.32-.12-10.67-1.27a6.67,6.67,0,0,1-1.76-5.09v-9.84q-.06-46.29-.1-92.59a28.94,28.94,0,0,1,.19-5.19C145.23,101.45,146.15,100.6,146.82,99.57Z"></path>
            <path class="cls-1" d="M184.16,354.79c-1.67-2-1.48-3.73-1.49-5.45,0-3.86,0-7.72,0-11.58q-.22-47.76-.44-95.52c0-2.29.07-4.57.1-6.8,4.41-2.78,8.09.18,11.55-.07,1.92,2.8,1.45,5.38,1.45,7.85q0,45.73-.05,91.47c0,4.83,0,9.65,0,14.48a22.54,22.54,0,0,1-.49,4c-.1.52-.58,1-1,1.63A21.62,21.62,0,0,1,184.16,354.79Z"></path>
            <path class="cls-1" d="M1047,354.66a21.63,21.63,0,0,1-10.67.21,17.5,17.5,0,0,1-.85-3.19c-.15-1.72-.07-3.47-.07-5.2q-.12-113.49-.24-227c0-2.29.1-4.58.15-6.87,3.69-1.85,7.06-2.7,10.68-1.47,1.25,2.59.79,5.14.79,7.61q.21,102.2.38,204.39c0,8.5.12,17,.14,25.48C1047.35,350.53,1047.15,352.42,1047,354.66Z"></path>
            <path class="cls-1" d="M1108.58,230.54c4.43-.63,8.7-1.75,13.33-1a18.89,18.89,0,0,1,1,3.41c.17,1.72.07,3.47.07,5.2q0,54.45-.12,108.9c0,2.07.48,4.24-.87,6.5-4.38,1.14-8.91.55-13.08.44-1.81-2.32-1.42-4.51-1.42-6.6,0-12.17,0-24.33-.07-36.49q0-36.49-.06-73C1107.38,235.68,1106.93,233.31,1108.58,230.54Z"></path>
            <path class="cls-1" d="M663.29,208.94l2.53-2.86C665.87,208.49,665.87,208.49,663.29,208.94Z"></path>
            <path class="cls-1" d="M664.2,213a9.92,9.92,0,0,1,.69-2c.07-.1.62.15.94.24Z"></path>
            <path class="cls-1" d="M669.13,214.35l.56-.69-.71.59Z"></path>
            <path class="cls-1" d="M669,214.25l-.93.22,1.08-.12Z"></path>
            <path class="cls-1" d="M666.5,202.43v1.37l-.63-.69Z"></path>
            <path class="cls-1" d="M590.9,215.63l2.57-1.59c-.4,2.17-.66,3.56-1,5.44C590.68,218.46,590.34,217.44,590.9,215.63Z"></path>
            <path class="cls-1" d="M590.89,225.09c-.78-1.09-.1-1.65.77-2.16C592,223.86,592.21,224.74,590.89,225.09Z"></path>
            <path class="cls-1" d="M652.43,219.87h1.4l-.71.53Z"></path>
        </g>
    </g>
</svg>